<svg width="25" height="24" viewBox="0 0 25 24" fill="none" xmlns="http://www.w3.org/2000/svg">
<path d="M12.4336 0.333313C13.9807 0.333313 15.4645 0.947894 16.5584 2.04186C17.6524 3.13582 18.267 4.61955 18.267 6.16665C18.267 7.71374 17.6524 9.19747 16.5584 10.2914C15.4645 11.3854 13.9807 12 12.4336 12C10.8865 12 9.40281 11.3854 8.30885 10.2914C7.21488 9.19747 6.6003 7.71374 6.6003 6.16665C6.6003 4.61955 7.21488 3.13582 8.30885 2.04186C9.40281 0.947894 10.8865 0.333313 12.4336 0.333313ZM12.4336 14.9166C18.8795 14.9166 24.1003 17.5271 24.1003 20.75V23.6666H0.766968V20.75C0.766968 17.5271 5.9878 14.9166 12.4336 14.9166Z" fill="white"/>
</svg>
